<?xml version="1.0" encoding="UTF-8"?><svg id="_레이어_2" xmlns="http://www.w3.org/2000/svg" viewBox="0 0 54.61 47.86"><defs><style>.cls-1{fill:#d4d9dd;}</style></defs><g id="_레이어_1-2"><g><path class="cls-1" d="M53.7,31.97c-.24,.71-.53,1.44-.88,2.16-.88,1.87-2.18,3.76-4.03,5.56-1.09,1.07-2.37,2.11-3.88,3.1-7.75,5.08-17.61,5.08-17.61,5.08,0,0-9.86,0-17.6-5.08-2.69-1.75-4.68-3.69-6.13-5.65-.56-.76-1.03-1.51-1.44-2.27-.11-.21-.21-.41-.3-.6-.33-.69-.62-1.37-.85-2.05-.03-.08-.05-.17-.08-.24-.05-.14-.09-.29-.12-.42-.32-1.01-.51-2.01-.63-2.96-.2-1.53-.18-2.96-.08-4.23,.3-3.32,1.3-5.57,1.3-5.57C4.96,10.09,16.42,.27,18.6,.02c1.12-.14,1.75,.57,2.24,1.44,.42,.74,2.36,4.91,3.05,5.26,.18,.09,.48,.15,.86,.18,.42,.06,.92,.08,1.37,.09,.65,.03,1.18,.02,1.18,.02,0,0,.53,.02,1.19-.02,.45-.02,.95-.03,1.37-.09,.38-.03,.68-.09,.86-.18,.68-.35,2.63-4.52,3.04-5.26,.5-.86,1.13-1.57,2.24-1.44,2.19,.26,13.66,10.08,17.24,18.76,0,0,1,2.25,1.3,5.57,.18,2.19,.08,4.85-.83,7.61Z"/><path d="M32.02,26.45c-.23-.39-.52-.7-1.07-.92-.86-.34-2.01-.58-3.65-.41-1.64-.18-2.79,.07-3.65,.41-.56,.22-.84,.53-1.07,.92-.73,1.23,.69,1.94,2.31,3.21,1.88,1.47,2.41,3.06,2.41,3.06,0,0,.53-1.6,2.41-3.06,1.62-1.27,3.04-1.98,2.31-3.21Z"/><ellipse cx="19.32" cy="19.34" rx="2.43" ry="2.56"/><ellipse cx="35.29" cy="19.34" rx="2.43" ry="2.56"/><g><path d="M23.62,37.67c-.23,0-.45-.1-.6-.29-.26-.33-.2-.8,.13-1.06l3.39-2.63v-2.59c0-.42,.34-.76,.76-.76s.76,.34,.76,.76v3.33l-3.98,3.09c-.14,.11-.3,.16-.46,.16Z"/><path d="M30.99,37.67c-.16,0-.32-.05-.46-.16l-3.98-3.09v-3.33c0-.42,.34-.76,.76-.76s.76,.34,.76,.76v2.59l3.39,2.63c.33,.26,.39,.73,.13,1.06-.15,.19-.37,.29-.6,.29Z"/></g><path d="M26.12,6.98v5.83l-1.37-5.92c.42,.06,.92,.08,1.37,.09Z"/><path d="M29.87,6.89l-1.37,5.92V6.98c.45-.02,.95-.03,1.37-.09Z"/><path d="M52.83,34.13c-.88,1.87-2.18,3.76-4.03,5.56l-6.57-4.32c2.16,1.16,5.12,1.96,7.3,2.45l-6.72-3.87c2.34,1.07,5.54,1.74,7.79,2.08l-7.27-3.31c3.05,1.06,7.43,1.34,9.5,1.4Z"/><path d="M1.78,34.13c.88,1.87,2.18,3.76,4.03,5.56l6.57-4.32c-2.16,1.16-5.12,1.96-7.3,2.45l6.72-3.87c-2.34,1.07-5.54,1.74-7.79,2.08l7.27-3.31c-3.05,1.06-7.43,1.34-9.5,1.4Z"/></g></g></svg>