<?xml version="1.0" encoding="UTF-8"?><svg id="_레이어_2" xmlns="http://www.w3.org/2000/svg" viewBox="0 0 107.91 17.72"><g id="_레이어_1-2"><g><path d="M67.16,.08c-1.15,0-1.73,.56-2.44,1.83l-4.25,8.95c-.08,.14-.22,.22-.36,.22s-.28-.08-.36-.22L55.49,1.91c-.71-1.27-1.29-1.83-2.44-1.83-1.27,0-2.18,.87-2.18,2.32V15.68c0,1.17,.77,1.98,1.85,1.98,1.55,0,3.43-2.72,7.38-2.72s5.83,2.72,7.38,2.72c1.09,0,1.85-.81,1.85-1.98V2.4c0-1.45-.91-2.32-2.18-2.32Zm-10.87,11.98c-.48,0-.93,.08-1.31,.24-.5,.22-.79,.44-.99,.6-.04,.02-.06,.04-.08,.06l-.14-7.32,3.12,6.45c-.18-.02-.38-.04-.6-.04Zm10,.91s-.04-.04-.08-.06c-.2-.16-.48-.38-.99-.6-.38-.16-.83-.24-1.31-.24-.22,0-.42,.02-.6,.04l3.1-6.45-.12,7.32Z"/><path d="M0,8.87C0,3.64,3.52,0,8.56,0c2.87,0,5.07,.85,6.66,2.71,.58,.67,.93,1.5,.93,2.16,0,.99-.79,1.83-1.77,1.83-.54,0-1.15-.24-1.68-.84-1-1.37-2.28-2.09-4.1-2.09-2.8,0-4.75,2.11-4.75,5.1s1.95,5.08,4.75,5.08c1.82,0,3.08-.74,4.1-2.09,.56-.6,1.15-.84,1.7-.84,.98,0,1.76,.83,1.76,1.83,0,.61-.34,1.44-.9,2.09-1.61,1.87-3.82,2.78-6.71,2.78C3.52,17.72,0,14.1,0,8.87Z"/><path d="M17.6,15.95c0-.3,.06-.74,.27-1.25L22.64,2.95c.8-2.01,1.75-2.95,3.58-2.95s2.79,.95,3.59,2.95l4.77,11.74c.2,.51,.27,.96,.27,1.25,0,.93-.82,1.75-1.77,1.75s-1.58-.44-1.87-1.2l-1.05-2.72h-7.88l-1.05,2.72c-.28,.77-.91,1.2-1.87,1.2s-1.77-.82-1.77-1.75Zm11.2-5.72l-2.58-6.69-2.58,6.69h5.15Z"/><path d="M39.41,15.72V4.05h-3.69c-1.09,0-1.88-.76-1.88-1.85s.79-1.84,1.88-1.84h11.13c1.09,0,1.87,.76,1.87,1.84s-.78,1.85-1.87,1.85h-3.7V15.72c0,1.15-.74,1.93-1.87,1.93s-1.88-.78-1.88-1.93Z"/><path d="M72,8.86c0-5.2,3.63-8.86,8.82-8.86s8.82,3.66,8.82,8.86-3.63,8.86-8.82,8.86-8.82-3.66-8.82-8.86Zm8.82,5.09c2.89,0,4.97-2.1,4.97-5.09s-2.08-5.09-4.97-5.09-4.96,2.1-4.96,5.09,2.07,5.09,4.96,5.09Z"/><path d="M90.65,15.95c0-.3,.06-.74,.27-1.25l4.77-11.74c.8-2.01,1.75-2.95,3.58-2.95s2.79,.95,3.59,2.95l4.77,11.74c.2,.51,.27,.96,.27,1.25,0,.93-.82,1.75-1.77,1.75s-1.58-.44-1.87-1.2l-1.05-2.72h-7.88l-1.05,2.72c-.28,.77-.91,1.2-1.87,1.2s-1.77-.82-1.77-1.75Zm11.2-5.72l-2.58-6.69-2.58,6.69h5.15Z"/></g></g></svg>