<svg id="레이어_1" data-name="레이어 1" xmlns="http://www.w3.org/2000/svg" xmlns:xlink="http://www.w3.org/1999/xlink" viewBox="0 0 1021.4 864.1"><defs><style>.cls-1{fill:none;}.cls-2{clip-path:url(#clip-path);}.cls-3{fill:#4b3e35;}.cls-4{fill:#c1a999;}.cls-5{fill:#c8afa0;}.cls-6{fill:#7c6557;}.cls-7{fill:#2c211b;}.cls-8{fill:#231b19;}.cls-9{fill:#3a3027;}.cls-10{fill:#d2f9ff;}.cls-11{fill:#fff;}.cls-12{clip-path:url(#clip-path-2);}.cls-13{fill:#e0894d;}.cls-14{fill:#fff0e2;}.cls-15{fill:#f09653;}.cls-16{fill:#c5763c;}.cls-17{fill:#ffb3b0;}.cls-18{fill:#b16838;}.cls-19{fill:#f6ec83;}.cls-20{fill:#2c160a;}.cls-21{fill:#51362d;}.cls-22{fill:#220e07;}.cls-23{fill:#47413c;}.cls-24{fill:#524b45;}.cls-25{fill:#312c28;}.cls-26{fill:#f4c5c8;}.cls-27{fill:#e9a4a4;}</style><clipPath id="clip-path" transform="translate(-45.1 -183)"><rect class="cls-1" y="20.5" width="513.8" height="960.28"/></clipPath><clipPath id="clip-path-2" transform="translate(-45.1 -183)"><rect class="cls-1" x="601.9" width="478.1" height="1094.68"/></clipPath></defs><g class="cls-2"><path class="cls-3" d="M175.1,506.6c5.4,25.3-2.2,51.6-12.8,75.3s-24.2,46-31.7,70.8-8.3,53.3,6,74.9h.1a145.8,145.8,0,0,0-6.2,56.1,148,148,0,0,0,5.3,28.7c-34.6-4.5-65.3-31.9-73.1-66-.9-3.6-.9-8.4,2.5-10-11.2-10.7-14.1-29.2-6.6-42.8-3-6-6.1-12.1-7-18.8s.6-14,5.6-18.5c-5.5-6.8-10.4-14.4-11.8-23S46.7,615,53.8,610a50.6,50.6,0,0,1-8-26.7c-.1-5.8,2.3-13.2,8.2-13.5-4.1-5.9-8.4-12.4-7.8-19.6s9.1-13.5,15-9.5c-5.9-19.3-4-41.2,6.7-58.2s30.5-28.6,50.6-27.9C146.1,455.7,169.4,479.6,175.1,506.6Z" transform="translate(-45.1 -183)"/><path class="cls-3" d="M284.9,331.2l2.8-1.2a9.5,9.5,0,0,1-2.5,5,23.4,23.4,0,0,1-6.9,4.7c-2.3,1.2-4.7,2.5-7.3,2.4a3.7,3.7,0,0,0-2.1.1,2.4,2.4,0,0,0-1.1.9c-2,2.3-2.7,5.4-4.3,7.9s-4.7,4.8-7.4,3.5-2.7-2.4-4.3-2.8-4.9,2.3-5.8,5-2,5.9-4.7,6.6-5.3-1.5-7.9-.7a9,9,0,0,1-2.1,9.6,9.1,9.1,0,0,1-9.6,1.9c-1.9-.8-4.1-2.1-5.6-.8a4,4,0,0,0-.8,1.6c-1.5,4.5-2.5,10.1-6.9,11.7l-.4-.7c.2-.7.3-1.4.5-2.1a498.9,498.9,0,0,1-3.5-62.5c0-12.8.8-26.1,6.9-37.3,1.2-2.2,2.8-4.5,5.2-5.2s5.3.6,7.7,1.9A196,196,0,0,1,284.9,331.2Z" transform="translate(-45.1 -183)"/><path class="cls-3" d="M437,298.7a205.3,205.3,0,0,1-2,62.1c-.7,4.3-1.7,8.7-1.1,13h0a11.1,11.1,0,0,1-2.5-.5A11.9,11.9,0,0,1,423,364a4.5,4.5,0,0,0-.7-2.3,4.6,4.6,0,0,0-2.9-.9,13.7,13.7,0,0,1-11-9.3,5,5,0,0,0-1.2-2.4c-1.5-1.4-3.9-.1-5.8.6a10.7,10.7,0,0,1-11.1-2c-5.1-4.7-4.9-13.8-10.8-17.5s-13.4-.3-19.1-3.6a11.1,11.1,0,0,1-4.3-4.8l.9.2,36.3-40.4c4.4-5,8.9-9.9,14.3-13.8,2.3-1.6,4.9-3.1,7.7-3.3,5.3-.5,10,3.1,13.1,7.4C434,279.5,435.9,289.2,437,298.7Z" transform="translate(-45.1 -183)"/><path class="cls-3" d="M384.4,902.9c-9.1-21.8-14.4-66.1-18.4-113.3,6.3,1.6,10.8,8,12.8,14.4s2.4,15.4,5.7,22.3a100.8,100.8,0,0,1,4.2-36.6,13.9,13.9,0,0,1,2.9-5.5,4.9,4.9,0,0,1,5.7-1.3,6.8,6.8,0,0,1,2.6,3.4,67.6,67.6,0,0,1,6.1,21.6,74.1,74.1,0,0,1,5-23.2c.7-1.8,1.7-3.6,3.5-4.3s4.7.8,5.7,2.9,1,4.6.8,7l-1.1,22.6a10,10,0,0,1,6.4-7c-1.1,32.8-1.9,59.6-2,71.5,4.3,4.8,24.6,16.3,22,31.2a17.2,17.2,0,0,1-.8,2.8c-6.7,18.7-33.2,15.4-38.5,13.2s-15.9-8-20.8-17.6C385.6,905.7,385,904.4,384.4,902.9Z" transform="translate(-45.1 -183)"/><path class="cls-3" d="M294.7,901.8l6.4-4.7a6,6,0,0,0,2.4-2.6c.6-1.4.1-3-.4-4.4-12.4-37.7-25.2-75.3-39.1-112.5,3.8-.1,7.4,2,10,4.7a40.1,40.1,0,0,1,6.4,9.4l6.4,11.7c-.1-4.7-.1-9.5,1.9-13.7a7.6,7.6,0,0,1,4.3-4.3c2.6-.7,5.3.7,7.2,2.6s3.5,4.1,5.7,5.7a67.1,67.1,0,0,1,0-27.5c.6-3.3,2.1-7.1,5.4-7.7s4.6.9,6.3,2.6c7.7,7.8,6.2,20.9,12.1,30.2a39.7,39.7,0,0,1,3.3-6.5c.5-.8,1.1-1.7,2-1.8s2.6,1.2,3.3,2.6a64.8,64.8,0,0,1,3.5,9.6c1.4-2.6,3.4-5,6.2-5.8a5.9,5.9,0,0,1,6,2c1,37.7,1.3,72.7,1.3,112,0,1.5-.1,3.1-.2,4.6-.8,6.9-3.2,13.7-8.4,18.1s-12.8,5.1-19.8,5.6-13.9.9-20.3-1.7c-3-1.2-5.8-3.1-8.9-4.1s-5.5-1-7.8-2.5a7.4,7.4,0,0,1-2.8-3.3c-1.7-3.6-1-8.4,1.2-11.9A24.3,24.3,0,0,1,294.7,901.8Z" transform="translate(-45.1 -183)"/><path class="cls-4" d="M366,789.6c4,47.2,9.3,91.5,18.4,113.3l-1.2-.2c-9.5-1.7-19.1,1.5-28.1,5.3.1-1.5.2-3.1.2-4.6,0-39.3-.3-74.3-1.3-112-.7-26.9-1.8-55.1-3.3-87.1,2.6-3.5,5.4-7.4,8.3-11.5C361.2,721.9,363.3,756.5,366,789.6Z" transform="translate(-45.1 -183)"/><path class="cls-5" d="M135.8,812.4a148,148,0,0,1-5.3-28.7,145.8,145.8,0,0,1,6.2-56.1,132.7,132.7,0,0,1,23.7-44.1c9.8-12,22.6-22.5,37.9-24.8-3-5.6-1.4-10.5,1.7-14.3-4.7,1-11,1.2-12.8-3.3-.8-1.9-.4-4.1.2-6.1a61.9,61.9,0,0,1,15.5-27.1c-3,2-7.1,3.8-9.6,1.3s-1.1-5.8.3-8.5a68.7,68.7,0,0,1,10.5-15.2c3.8-7.7,6-11.4,8.2-15.1-2.7.7-5.5,1.4-8.3,1s-5.5-2.2-6.2-5,1-5.6,2.8-8c4.5-6,9.8-11.4,14.4-17.5s8.2-13,8.8-20.5c-6.7-.4-12.7-1.7-16.1-5.5a12.4,12.4,0,0,1-1.1-14.3c-5.1-.4-10.8-1.1-13.9-5.2-4.8-6.1-.3-14.8,2.8-21.9a8.6,8.6,0,0,0,.9-4.7c-.9-5.9-11-5.7-12.8-11.3-.8-2.5.3-5.1,1.4-7.4a437.9,437.9,0,0,0,23-64.2l.4.7c4.4-1.6,5.4-7.2,6.9-11.7a4,4,0,0,1,.8-1.6c1.5-1.3,3.7,0,5.6.8a9.1,9.1,0,0,0,9.6-1.9,9,9,0,0,0,2.1-9.6c2.6-.8,5.3,1.4,7.9.7s3.7-3.9,4.7-6.6,3-5.7,5.8-5,2.7,2.1,4.3,2.8,5.9-.9,7.4-3.5,2.3-5.6,4.3-7.9a2.4,2.4,0,0,1,1.1-.9,3.7,3.7,0,0,1,2.1-.1c2.6.1,5-1.2,7.3-2.4a23.4,23.4,0,0,0,6.9-4.7,9.5,9.5,0,0,0,2.5-5,139.6,139.6,0,0,1,68.4-8.2,11.1,11.1,0,0,0,4.3,4.8c5.7,3.3,13.6,0,19.1,3.6s5.7,12.8,10.8,17.5a10.7,10.7,0,0,0,11.1,2c1.9-.7,4.3-2,5.8-.6a5,5,0,0,1,1.2,2.4,13.7,13.7,0,0,0,11,9.3,4.6,4.6,0,0,1,2.9.9,4.5,4.5,0,0,1,.7,2.3,11.9,11.9,0,0,0,8.4,9.4,11.1,11.1,0,0,0,2.5.5,42.8,42.8,0,0,0,2.9,9.2c4.8,11.3,10.2,22.5,16,33.4,4.7,8.7,9.8,17.8,10.4,27.7.4,6.5-2.9,14.7-9.5,14.8.7,8.6.6,19.2-6.9,23.6-1.3.8-2.8,1.4-3.7,2.7a8.2,8.2,0,0,0-.9,3.8c-.7,9.7-5.3,20.5-18,24.2a176.2,176.2,0,0,0,22.3,68.4c1.4,2.3,2.8,5.1,1.9,7.6s-6.3,4.1-10.2,3.9c2.6,5.8,3.3,12.5-.8,18.7,0,7,5.4,13.3,4.9,20.2a3.5,3.5,0,0,1-.3,1.1,1.7,1.7,0,0,1-2.1.4,4.3,4.3,0,0,1-1.7-1.6,95.1,95.1,0,0,1,2.8,14.1,19.4,19.4,0,0,1,0,7.6c-.7,2.4-2.3,4.8-4.7,5.6,6.6-.9,12,4.8,17.6,9.8s9.3,11.8,12,18.8c4.9,12.9,6.8,26.8,7.8,40.5,3.4,49.3-9.6,86.5-31.4,142.2-.6,1.5-1.7,3.3-.6,4.4a4.2,4.2,0,0,0,1.9.9c7.9,1.8,14.4,4.5,19.6,12.3,3,4.5,3.4,11.3,0,15.4s-9.9,4.9-16.9,5c2.6-14.9-17.7-26.4-22-31.2.1-11.9.9-38.7,2-71.5a10,10,0,0,0-6.4,7l1.1-22.6c.2-2.4.3-4.8-.8-7s-3.5-3.7-5.7-2.9-2.8,2.5-3.5,4.3a74.1,74.1,0,0,0-5,23.2,67.6,67.6,0,0,0-6.1-21.6,6.8,6.8,0,0,0-2.6-3.4,4.9,4.9,0,0,0-5.7,1.3,13.9,13.9,0,0,0-2.9,5.5,100.8,100.8,0,0,0-4.2,36.6c-3.3-6.9-3.4-14.9-5.7-22.3s-6.5-12.8-12.8-14.4c-2.7-33.1-4.8-67.7-7-96.8-2.9,4.1-5.7,8-8.3,11.5,1.5,32,2.6,60.2,3.3,87.1a5.9,5.9,0,0,0-6-2c-2.8.8-4.8,3.2-6.2,5.8a64.8,64.8,0,0,0-3.5-9.6c-.7-1.4-1.8-3-3.3-2.6s-1.5,1-2,1.8a39.7,39.7,0,0,0-3.3,6.5c-5.9-9.3-4.4-22.4-12.1-30.2-1.7-1.7-4-3.1-6.3-2.6s-4.8,4.4-5.4,7.7a67.1,67.1,0,0,0,0,27.5c-2.2-1.6-3.7-3.9-5.7-5.7s-4.6-3.3-7.2-2.6a7.6,7.6,0,0,0-4.3,4.3c-2,4.2-2,9-1.9,13.7l-6.4-11.7a40.1,40.1,0,0,0-6.4-9.4c-2.6-2.7-6.2-4.8-10-4.7,13.9,37.2,26.7,74.8,39.1,112.5.5,1.4,1,3,.4,4.4a6,6,0,0,1-2.4,2.6l-6.4,4.7a24.3,24.3,0,0,0-6.4,6.4c-2.2,3.5-2.9,8.3-1.2,11.9-13.2.8-31.9-.4-44.4-2.2s-25.2-5.1-36.6-11-23.5-16.2-32.9-26.9A172.6,172.6,0,0,1,135.8,812.4Z" transform="translate(-45.1 -183)"/><path class="cls-6" d="M365.1,789.6c-4-32.1-5.9-64.6-7-96.9a.9.9,0,0,1,1.8,0c1,7.7,1.8,16.2,2.6,24.2,1.3,15.8,2.5,32.5,3.3,48.3.5,8.1.9,16.2,1.1,24.3a.8.8,0,0,1-.8.9,1,1,0,0,1-1-.8Z" transform="translate(-45.1 -183)"/><path class="cls-6" d="M433.5,630.5c-.4,43.3-1.9,87-3.8,130.2-.6,12.6-1.5,30.8-2.3,43.3a1,1,0,1,1-1.9-.1c.5-43.2,1.9-86.9,3.9-130.1.6-12.7,1.4-30.8,2.3-43.3a.9.9,0,0,1,.9-.9,1.1,1.1,0,0,1,.9.9Z" transform="translate(-45.1 -183)"/><path class="cls-6" d="M352.8,789c-1.4-23.9-2.9-60.3-4-84.6a2.7,2.7,0,0,1,.3-1.2l8.9-12.1A213.8,213.8,0,0,0,374.1,666a129.3,129.3,0,0,0,6.3-13.6.9.9,0,0,1,1.2-.5,1,1,0,0,1,.5,1.1,108.9,108.9,0,0,1-5.6,14.1c-6.3,13.3-15.7,26.5-24.3,38.4l.3-1.3c1.3,24.7,2.1,49.5,2.2,74.2,0,3.5,0,7-.1,10.6a.9.9,0,0,1-.9.9c-.5,0-.8-.4-.9-.9Z" transform="translate(-45.1 -183)"/><path class="cls-6" d="M227.7,657.5c2.7,36.9,20.2,70.4,32,104.9,1.7,4.9,3.5,9.9,5.2,14.9a.8.8,0,0,1-.6,1.1.9.9,0,0,1-1.1-.5c-2.1-4.8-4.1-9.7-6.1-14.5-11.9-30.4-27.2-61-30.6-93.9a117.1,117.1,0,0,1-.6-11.9.9.9,0,0,1,1.8-.1Z" transform="translate(-45.1 -183)"/><path class="cls-6" d="M197.9,791.6c30.9-9,55,12.8,66.9,39.5a109,109,0,0,1,6.9,19.9,184.2,184.2,0,0,1,5.1,33.7c.2,1.7-.1,3.9.9,5.1s2,.5,3.2.8a19.4,19.4,0,0,1,11.7,6.7c1.1,1.4,2.1,2.9,3.1,4.3a.9.9,0,0,1-.3,1.3,1,1,0,0,1-1.2-.3c-5-6.9-8.3-8.7-16.5-9.8a4.4,4.4,0,0,1-1.7-.8c-1.4-1-1.8-3-2-4.4s-.2-3.5-.4-5.3a210.7,210.7,0,0,0-5.5-30.4,114.8,114.8,0,0,0-6.7-19.2c-10.8-23.8-31.2-44.7-59.3-40.1l-3.8.8a.9.9,0,0,1-.4-1.8Z" transform="translate(-45.1 -183)"/><path class="cls-6" d="M279.3,904.8a21.7,21.7,0,0,1,2.8,7.3,21,21,0,0,1,0,7.9.9.9,0,0,1-1.8-.2,44.8,44.8,0,0,0-.5-7.3,49.9,49.9,0,0,0-1.5-7.3.5.5,0,0,1,1-.4Z" transform="translate(-45.1 -183)"/><path class="cls-7" d="M307.8,907.2c-4.5,5.1-8,11.9-6.7,18.8a1.2,1.2,0,0,1-1,1.4,1.1,1.1,0,0,1-1.3-1c-1-5.7,1-11.5,4.4-15.9a29.6,29.6,0,0,1,3.9-4,.4.4,0,0,1,.7.1.4.4,0,0,1,0,.6Z" transform="translate(-45.1 -183)"/><path class="cls-7" d="M318.9,911a23.6,23.6,0,0,0-3.6,19.3,1.2,1.2,0,0,1-.8,1.4,1.1,1.1,0,0,1-1.4-.8,22.7,22.7,0,0,1,1.8-16.2,20.3,20.3,0,0,1,3.3-4.4.5.5,0,0,1,.7.7Z" transform="translate(-45.1 -183)"/><path class="cls-7" d="M420,907.9a19.8,19.8,0,0,1,4,16.9,1.2,1.2,0,0,1-1.4.9,1.2,1.2,0,0,1-.9-1.4,23,23,0,0,0-2.5-15.8c-.3-.5.4-1.1.8-.6Z" transform="translate(-45.1 -183)"/><path class="cls-7" d="M433.7,902.9a17.9,17.9,0,0,1,4.3,17.5,1.1,1.1,0,1,1-2.2-.6,19.3,19.3,0,0,0-2.9-16.3c-.4-.5.3-1,.8-.6Z" transform="translate(-45.1 -183)"/><path class="cls-3" d="M309.2,342.8c-8,3.7-9.3,14.2-13.3,22.1-7.3,14.5-24.4,20.5-38.2,29.1a96,96,0,0,0-37.4,44.2c-1.4,3.4-2.6,7-2.1,10.6s3.4,7.1,7,7.3c-3.9,7.5,1.4,18.1,9.8,19.5-.9,7.9,5.1,15.3,12.3,18.6s15.4,3.6,23.3,4,18.2-3.5,42.3,13.8c15.1,10.8,33.5,7.7,42.4.2,6.8-5.8,12.1-10.3,20.1-14.4,11.9-6,30,.9,40.1-7.7,4.7-4,4.3-7,4.1-13.2,7.6,0,13.4-5.7,8.2-15.7,6.9-3.5,13.7-7.1,13-19.2-1.1-16.8-8.9-35.9-37.2-51.9-15.6-8.8-32.1-20-42.4-34.7-2.9-4-5.7-9.1-10.6-9.8-1.5-.2-3.1.1-4.4-.7s-1.8-2.2-2.4-3.5c-2.3-5.4-7.1-10.5-13-10.3s-10.9,6.8-14.1,12.7A6.8,6.8,0,0,0,309.2,342.8Z" transform="translate(-45.1 -183)"/><path class="cls-8" d="M217.7,295.4c-4.5,4.5-3.1,29.2-2.2,43.9.5,8.1,1.5,16.4,5,23.8a36.6,36.6,0,0,1,2.8-13.1c.8-1.6,2.3-3.6,4-2.9a3.8,3.8,0,0,1,1.6,1.7l3.2,5.1a14.2,14.2,0,0,1,.7-7.1,3.8,3.8,0,0,1,1.3-1.9c1.4-.9,3.2-.1,4.4,1.1s2,2.5,3.5,3.2c.1-2.5.4-5.5,2.6-6.7s3.3-.4,5-.3a17.4,17.4,0,0,0,13.9-5.8c-5.9-7.7-12.2-15.2-18.7-22.4S221.5,291.5,217.7,295.4Z" transform="translate(-45.1 -183)"/><path class="cls-8" d="M418.8,279.4c6.8,2.7,8.2,45.1,1.8,67.7-1.3-.5-2.8-.6-3.2-2.4s.6-8.1-.6-10.4-2.5-3.4-4.1-2.6a3.6,3.6,0,0,0-1.5,1.7l-2.9,5.4a13.4,13.4,0,0,0-1.2-7.1,3.6,3.6,0,0,0-1.4-1.8c-1.4-.8-3.2.2-4.3,1.4s-1.9,2.7-3.3,3.4c-.2-2.5-.7-5.4-3-6.4s-3.3-.3-5-.1a17.2,17.2,0,0,1-14.3-4.8c5.4-8.1,11.2-16,17.2-23.7S413.7,277.4,418.8,279.4Z" transform="translate(-45.1 -183)"/><path class="cls-6" d="M271.1,905.9a22.6,22.6,0,0,1,2.2,6.8,21.2,21.2,0,0,1,0,7.1.8.8,0,0,1-1,.7.8.8,0,0,1-.8-.8c-.1-2.3-.2-4.5-.5-6.7s-.6-4.5-.9-6.8c-.2-.6.7-.9,1-.3Z" transform="translate(-45.1 -183)"/><path class="cls-9" d="M312.7,467.8c3.3,3.9,9.1,6.5,13.6,3.5s5.2-9.1,5.8-14.3c0-.6,1-.6,1.1.1a31.5,31.5,0,0,1-.6,8.6c-1.5,6.5-7.4,10.9-14.1,8.4a13,13,0,0,1-6.7-5.7.5.5,0,0,1,.9-.6Z" transform="translate(-45.1 -183)"/><path class="cls-9" d="M351,468.7c-4.7,8.2-17.6,4-19-4.6a22.7,22.7,0,0,1,0-7.8.6.6,0,0,1,.6-.5,1.2,1.2,0,0,1,.5.5,33.3,33.3,0,0,0,.8,7.3c1.7,6.9,11.4,10.3,16.2,4.5.4-.5,1.2.1.9.6Z" transform="translate(-45.1 -183)"/><path class="cls-6" d="M452.5,898a12.9,12.9,0,0,1,2.9,10.7,1.2,1.2,0,0,1-2.3-.4,13.5,13.5,0,0,0,0-4.9,15.8,15.8,0,0,0-1.5-4.8.6.6,0,0,1,.9-.6Z" transform="translate(-45.1 -183)"/><path class="cls-6" d="M457.8,892.9a13.4,13.4,0,0,1,4,11.7,1.1,1.1,0,0,1-1.3.9,1.1,1.1,0,0,1-1-1.3,14,14,0,0,0-.2-5.4,18.7,18.7,0,0,0-2.3-5.2c-.3-.5.4-1,.8-.7Z" transform="translate(-45.1 -183)"/><path class="cls-10" d="M347.6,435.5a26.5,26.5,0,0,1,5.4-23.9,28.3,28.3,0,0,1,22.8-9.5,30.7,30.7,0,0,1,21.9,11.6,10.6,10.6,0,0,1,2.2,4.2c.5,2.1-4,24.9-22.2,29.6C363.5,451.1,348.9,440.4,347.6,435.5Z" transform="translate(-45.1 -183)"/><ellipse cx="324.9" cy="240.7" rx="15.9" ry="15.5"/><ellipse class="cls-11" cx="333.3" cy="231.2" rx="5.9" ry="5.5"/><path d="M347.2,435.1c-6.7-21.9,17.4-42.4,38-31.8,6.1,3,11.1,7.8,15.3,13-5.1-4.3-10.3-8.4-16.3-10.8-19.4-8.4-39.6,9.2-37,29.6Z" transform="translate(-45.1 -183)"/><path class="cls-10" d="M309.7,440.5a26.3,26.3,0,0,0-5.5-23.9,28.2,28.2,0,0,0-22.7-9.4,30.5,30.5,0,0,0-21.9,11.6,10.2,10.2,0,0,0-2.3,4.2c-1.4,8.1,4.1,24.8,22.2,29.5C293.8,456.2,308.3,445.4,309.7,440.5Z" transform="translate(-45.1 -183)"/><ellipse cx="242.2" cy="245.8" rx="15.9" ry="15.5"/><path class="cls-11" d="M305.2,423.5a5.8,5.8,0,1,0-5.8,5.4A5.6,5.6,0,0,0,305.2,423.5Z" transform="translate(-45.1 -183)"/><path d="M310,440.1c2.7-20.4-17.6-37.9-37-29.6-5.9,2.4-11.1,6.6-16.2,10.9,4.2-5.2,9.2-10.1,15.3-13.1,20.5-10.5,44.6,9.9,37.9,31.8Z" transform="translate(-45.1 -183)"/><path d="M331.9,448c-2.3-.1-4.4-1.8-6.7-2.1a3.6,3.6,0,0,0-3.4,1.5,3.8,3.8,0,0,0-.2,3.7,7.5,7.5,0,0,0,1.9,2.4,39.2,39.2,0,0,0,3.2,2.5,9.2,9.2,0,0,0,4,1.9,7.3,7.3,0,0,0,5.5-1.7,18.3,18.3,0,0,0,3.7-4.6,12.1,12.1,0,0,0,1.7-4.3,3.2,3.2,0,0,0-.7-2.3,2.6,2.6,0,0,0-1.9-.7C337.4,444.3,334.7,447.5,331.9,448Z" transform="translate(-45.1 -183)"/><path class="cls-6" d="M387.1,639.1a.9.9,0,0,0-1-.6.9.9,0,0,0-.5,1,11.3,11.3,0,0,1,0,2.6c0,.8-.3,1.7-.4,2.6s1,.9,1.3.3a7.7,7.7,0,0,0,.7-2.9A15.1,15.1,0,0,0,387.1,639.1Z" transform="translate(-45.1 -183)"/><path class="cls-6" d="M392.1,635.5v-3.2a.9.9,0,1,0-1.8,0c0,1.1,0,2.1-.1,3.2s0,2.1.1,3.1a.9.9,0,0,0,.6.9h.5a1,1,0,0,0,.7-.9Z" transform="translate(-45.1 -183)"/><path class="cls-6" d="M394.9,615.5a.9.9,0,0,0-1.2-.6.9.9,0,0,0-.6,1.1c.4,2.1.7,4.3,1.2,6.4s1.6.7,1.5-.2S395.2,617.7,394.9,615.5Z" transform="translate(-45.1 -183)"/><path class="cls-6" d="M212.9,593a.9.9,0,0,0-1.3.3c-.8,1.6-1.7,3.2-2.5,4.9a1,1,0,0,0,.3,1.2.9.9,0,0,0,1.2-.3,45.9,45.9,0,0,0,2.6-4.9A.8.8,0,0,0,212.9,593Z" transform="translate(-45.1 -183)"/><path class="cls-6" d="M216.2,595.3l-2.5,3.5a23.3,23.3,0,0,0-1.9,3.9c-.3,1.1,1.3,1.8,1.8.8s1.1-2.5,1.7-3.7a40.5,40.5,0,0,1,2.1-3.5C218,595.6,216.7,594.6,216.2,595.3Z" transform="translate(-45.1 -183)"/><path class="cls-6" d="M220.8,599.2a1.1,1.1,0,0,0-1.4.7l-.6,2.9-.3,1.5c0,.2-.1.6-.1.9a1.4,1.4,0,0,0,.5.9.6.6,0,0,0,.9.1,1.1,1.1,0,0,0,.7-.8,6.4,6.4,0,0,0,.2-.7l.3-1.3.6-2.9A1.1,1.1,0,0,0,220.8,599.2Z" transform="translate(-45.1 -183)"/><path class="cls-6" d="M207.8,477.5a1,1,0,0,0-1.3.4,20.5,20.5,0,0,0-1.6,4.1,16,16,0,0,0-.5,2.1c-.1.3-.1.7-.2,1.1a4.9,4.9,0,0,0,.1,1.2.7.7,0,0,0,1.4.2,15.2,15.2,0,0,0,.6-2,14.6,14.6,0,0,1,.5-2,23.2,23.2,0,0,1,1.3-3.7A1.1,1.1,0,0,0,207.8,477.5Z" transform="translate(-45.1 -183)"/><path class="cls-6" d="M209.3,486.5a.9.9,0,0,0-.9.9l-.3,2.7c0,.4-.1.9-.1,1.3s-.1.4-.1.6v.8a1,1,0,0,0,.7.8.9.9,0,0,0,.9-.6,3.1,3.1,0,0,0,.2-.8,2,2,0,0,0,.1-.7c0-.4.1-.9.1-1.3l.3-2.8C210.3,487,209.8,486.5,209.3,486.5Z" transform="translate(-45.1 -183)"/><path class="cls-6" d="M454.6,441.2c-.2-.5-.3-1.1-.5-1.7a8.8,8.8,0,0,0-.5-1.5l-1.2-3.2a.9.9,0,0,0-1.2-.7,1.1,1.1,0,0,0-.8,1.3l1.2,3.2a32.4,32.4,0,0,0,1.3,3.3,1.1,1.1,0,0,0,1.2.4A.9.9,0,0,0,454.6,441.2Z" transform="translate(-45.1 -183)"/><path class="cls-6" d="M451.5,446.2a8.6,8.6,0,0,0-.6-2.3c-.2-.5-.6-.8-1.1-.6s-.8.6-.6,1a4.5,4.5,0,0,1,.3,1.1c.1.1.1.3.2.5v.4a3.4,3.4,0,0,1,.1,1,4.1,4.1,0,0,0,0,1.1c0,.4.2.7.6.7a.7.7,0,0,0,.8-.5,5,5,0,0,0,.3-1.3Z" transform="translate(-45.1 -183)"/><path class="cls-6" d="M237.9,816.3c0-.2-.1-.3-.2-.5l-.5-.7-.9-1a11.2,11.2,0,0,0-2.4-1.9,1,1,0,0,0-1.3.4,1,1,0,0,0,.4,1.3l.5.4.3.2h.1l1,.9.4.5c.1.1.2.2.2.3h.1l.6.7h0c0,.1.1.1.2.2l.4.3a.8.8,0,0,0,1.2-.7A.7.7,0,0,0,237.9,816.3Z" transform="translate(-45.1 -183)"/><path class="cls-6" d="M237.3,822.5a3.6,3.6,0,0,0-.3-.7l-.5-.6-.8-1-1.7-1.9a1.1,1.1,0,0,0-1.3,0,1,1,0,0,0,0,1.4l1.6,1.9.8.9.4.5.7.4a.8.8,0,0,0,.8-.1A.7.7,0,0,0,237.3,822.5Z" transform="translate(-45.1 -183)"/><path class="cls-6" d="M227.1,812.9a.8.8,0,0,0-.1-.4l-.2-.3-.3-.3a4.6,4.6,0,0,0-.7-.7l-1.4-1.4a.8.8,0,0,0-1.2,0,.9.9,0,0,0,0,1.2l1.4,1.4.7.6.3.3.3.3h.4A.6.6,0,0,0,227.1,812.9Z" transform="translate(-45.1 -183)"/><path class="cls-6" d="M166.7,698.5a19.9,19.9,0,0,0-5,4.1,15.6,15.6,0,0,0-2,2.7,5.6,5.6,0,0,0-1.3,3.2,1,1,0,0,0,1.7.8,15.1,15.1,0,0,0,1.8-2.6,13.4,13.4,0,0,1,1.6-2.3,18.1,18.1,0,0,1,4.4-3.9A1.2,1.2,0,0,0,166.7,698.5Z" transform="translate(-45.1 -183)"/><path class="cls-6" d="M164.7,709.4a1,1,0,0,0-1.3.3l-2.2,3.2-1.1,1.5-.6.9a1.4,1.4,0,0,0-.2.6c-.1.2-.1.4-.2.6a1,1,0,0,0,1.4.7,5.8,5.8,0,0,0,1.4-1.7,14,14,0,0,0,1-1.6l2.1-3.3A.9.9,0,0,0,164.7,709.4Z" transform="translate(-45.1 -183)"/><path class="cls-6" d="M172,704a.7.7,0,0,0-1.1,0,8.1,8.1,0,0,0-1.8,1.9l-.6,1.1a2.8,2.8,0,0,0-.4,1.5.8.8,0,0,0,.6.8.8.8,0,0,0,1-.4l.3-.6c.1-.2.1-.4.2-.6a.1.1,0,0,1,.1-.1h0a.1.1,0,0,1,.1-.1,1.4,1.4,0,0,1,.2-.6l.3-.5a.2.2,0,0,0,.2-.2h.1l.8-.9A.8.8,0,0,0,172,704Z" transform="translate(-45.1 -183)"/><path class="cls-6" d="M459.5,770a1.1,1.1,0,0,0-1.3.8l-.8,3.7-.4,1.9a8.3,8.3,0,0,0-.3,2.2,1,1,0,0,0,.9.7,1.1,1.1,0,0,0,1.1-.5,5.8,5.8,0,0,0,.4-1.9,10.6,10.6,0,0,0,.4-1.9c.2-1.2.5-2.4.7-3.7A1.1,1.1,0,0,0,459.5,770Z" transform="translate(-45.1 -183)"/><path class="cls-6" d="M453.1,771.1a.9.9,0,0,0-1-1c-.5,0-1.1.4-1,1a17.9,17.9,0,0,1-.1,4c-.1,1.4-.4,2.7-.5,4a.9.9,0,0,0,1.6.5,13,13,0,0,0,1.1-4.3A19.7,19.7,0,0,0,453.1,771.1Z" transform="translate(-45.1 -183)"/></g><g class="cls-12"><path class="cls-13" d="M1030.6,817.7c20.8,20.9,21.9,56.5,7,82s-42.9,41.4-71.7,47.5-58.9,3.5-88.1-.8c-21.2-3.1-42.6-7.2-63.9-4.8-37.4,4.1-71.5,29-88.1,62.7-6,12.2-9,28.9,1.3,37.8,5.2,4.5,12.6,5.6,19.5,4.7,24.3-3.2,39.4-27.1,58.9-41.9s42.9-20.4,66.5-22.4,47.4-.3,71-1c29.2-.9,59.5-5.8,83.3-22.7a94.7,94.7,0,0,0,14.5-142.3c-1.6-1.7-3.4-3.4-5.7-3.8S1030,813.8,1030.6,817.7Z" transform="translate(-45.1 -183)"/><path class="cls-14" d="M822.9,898.3a11.5,11.5,0,0,1,.8-7.6c2.5-6.3,9-10.1,13.4-15.2a11.3,11.3,0,0,1,6.3,2.8c2.4,2,4,5.1,6.8,6.4s6,.6,9,1c6.1.7,11.2,5.7,13.3,11.5a29.2,29.2,0,0,1,1.1,12.8c-11.5,3.9-29.5,3-36.8.3S824.3,903.8,822.9,898.3Z" transform="translate(-45.1 -183)"/><path class="cls-14" d="M831.5,652c-9.5-14.3-29.1-19.5-42-31.5a49,49,0,0,1-15-34c3.8-44.2,11.5-79,23.1-117.2,29.2,7.3,60.3,6.6,89.9.5a207.8,207.8,0,0,0,31.7-9c1,10.1,2.3,19.6,3.8,28.6a67.8,67.8,0,0,1-20.3,34.4c-8.2,7.5-18.2,12.8-26.6,20s-15.6,17.3-15,28.4c.5,9,5.9,17.5,4.5,26.3-1.6,10.5-11.8,16.9-18.9,24.7a50.1,50.1,0,0,0-13.1,32.4A21.2,21.2,0,0,0,831.5,652Z" transform="translate(-45.1 -183)"/><path class="cls-14" d="M797.6,469.3a157.5,157.5,0,0,1-17.7-5.5,145.5,145.5,0,0,1-51.8-33.5,42.2,42.2,0,0,1,14.8-17.1c14.8-9.9,34.9-9.6,49.3-20.2a39.4,39.4,0,0,0,13.4-18.3c2.3-6.8,2.7-14.1,4.5-21,2.2-8.8,6.5-16.9,8.8-25.6,3-11.5,2.6-24.2,9-34.3,1.5-2.4,4.1-4.8,6.9-4.2s3.6,2.8,4.6,4.8a80.5,80.5,0,0,1,7.1,25c.8,7.9.5,16.2,3.8,23.4,1.8,3.8,4.5,7.1,6.2,10.9,4,9,2.3,20,7.6,28.3s13,10.1,21.2,11.5,16.6,1.4,24.4,4.1,12.8,6.6,19.2,9.9,15.3,6.5,22.1,11.2,10.5,9.9,11.7,16.6a137.6,137.6,0,0,1-16.3,12.1,152.7,152.7,0,0,1-27.2,13.4,207.8,207.8,0,0,1-31.7,9C857.9,475.9,826.8,476.6,797.6,469.3Z" transform="translate(-45.1 -183)"/><path class="cls-15" d="M837.1,875.5c-4.4,5.1-10.9,8.9-13.4,15.2a11.5,11.5,0,0,0-.8,7.6c-8.6,2.8-24.5,5.4-36.8,6.4-9.3.7-20.5-.5-24.8-8.7-3.1-5.8-1.3-13.2,2.9-18.3s8.6-7.2,11.4-12,6.6-27.7,7.3-32.2c22.6-138.3-28.6-137-15.1-219.9a226.8,226.8,0,0,1,6.7-27.1,49,49,0,0,0,15,34c12.9,12,32.5,17.2,42,31.5a54.8,54.8,0,0,1,.5,5.7q4.9,99.4,10,198.7c.2,4.8.4,9.7-1.5,14A17.5,17.5,0,0,1,837.1,875.5Z" transform="translate(-45.1 -183)"/><path class="cls-15" d="M891.3,898.2c-2.2.1-4.5.2-6.7.1a15.3,15.3,0,0,1-2.6,6.3c-1.7,2.4-4.7,4.1-8.4,5.4a29.2,29.2,0,0,0-1.1-12.8c-2.1-5.8-7.2-10.8-13.3-11.5-3-.4-6.3.3-9-1s-4.4-4.4-6.8-6.4a11.3,11.3,0,0,0-6.3-2.8,17.5,17.5,0,0,0,3.4-5.1c1.9-4.3,1.7-9.2,1.5-14q-4.9-99.3-10-198.7a54.8,54.8,0,0,0-.5-5.7,21.2,21.2,0,0,1,2.1,3.6,50.1,50.1,0,0,1,13.1-32.4c7.1-7.8,17.3-14.2,18.9-24.7,1.4-8.8-4-17.3-4.5-26.3-.6-11.1,6.5-21.2,15-28.4s18.4-12.5,26.6-20A67.8,67.8,0,0,0,923,489.4c14.8,89.8,51.1,124,84.8,195.4,13.5,28.6,27.6,57.8,30.6,89.3A133.4,133.4,0,0,1,932.6,917.7c-11.4,2.4-23.5,3.2-34.3-1.1-3.3-1.3-6.6-3.3-8.3-6.4S888.9,902,891.3,898.2Z" transform="translate(-45.1 -183)"/><path class="cls-15" d="M997.3,374.9a15.1,15.1,0,0,1-.8,5.1,196.9,196.9,0,0,1-7.9,21.3,106.1,106.1,0,0,1-25.9,34c-1.2-6.7-6-12.6-11.7-16.6s-14.8-7.4-22.1-11.2-12.4-7.6-19.2-9.9-16.3-2.7-24.4-4.1-16.7-4.6-21.2-11.5-3.6-19.3-7.6-28.3c-1.7-3.8-4.4-7.1-6.2-10.9-3.3-7.2-3-15.5-3.8-23.4a80.5,80.5,0,0,0-7.1-25c-1-2-2.4-4.3-4.6-4.8s-5.4,1.8-6.9,4.2c-6.4,10.1-6,22.8-9,34.3-2.3,8.7-6.6,16.8-8.8,25.6-1.8,6.9-2.2,14.2-4.5,21A39.4,39.4,0,0,1,792.2,393c-14.4,10.6-34.5,10.3-49.3,20.2a42.2,42.2,0,0,0-14.8,17.1,119.6,119.6,0,0,1-25.8-38.9,10.6,10.6,0,0,1-.9-3.6,9.9,9.9,0,0,1,.9-4.2q16.4-44.2,32.5-88.3a367.5,367.5,0,0,1,1.9-54.3c1.9-16.7,5.3-33.9,15.3-47.3,1.1-1.4,2.3-2.9,4-3.3s4.8,1,6.6,2.6c14.1,12.4,30.6,29.6,42,44.5,1.2,1.6,2.7,3.3,4.7,3.6a8,8,0,0,0,4.3-1,96.2,96.2,0,0,1,55.2-5.4c15-19.6,38.6-53.8,47.3-51.6,12,3,26.6,59.8,23.5,80.5-.3,2.3,16.1,13.5,27.5,47.9,6.7,20,16.3,39.1,27.4,57C995.8,370.5,997.1,372.5,997.3,374.9Z" transform="translate(-45.1 -183)"/><path class="cls-16" d="M888.3,905.3c.2-5.1,3.4-9.4,7-12.7,6.6-5.6,15.8-7.5,21.2-14.4,7.8-10.6,3.6-24.7,0-36.1-11.7-36.1-3.6-81.1,24.7-107.5a76.1,76.1,0,0,1,24.5-15.3l1.6-.7,1.8-.5,3.4-1.2a.6.6,0,0,1,.7.4.7.7,0,0,1-.4.8l-5,1.7-4.9,2.1-3.2,1.6-.8.4-2.3,1.4c-1.7.9-4.3,2.7-5.9,3.8-34,24.9-44.2,73.3-32,112.3,3.8,12,7.7,26.9-.7,38-5.5,7-14.9,8.9-21.7,14.3-3.5,3-6.5,7-6.8,11.6a.6.6,0,0,1-.6.6.6.6,0,0,1-.6-.6Z" transform="translate(-45.1 -183)"/><path class="cls-16" d="M822.4,898.5c-1.9-7.3,3.7-13.8,8.7-18.2s9.8-9.2,10-16.4a69.5,69.5,0,0,0-.2-10.2c-1.2-20.8-4.8-90.9-5.9-112.9-.7-4.9-3.5-90.1-5.3-91.9-2.2-6.3-8.4-10.4-12.9-15.2a105.8,105.8,0,0,1-26.2-44,.5.5,0,0,1,.3-.7.7.7,0,0,1,.8.4,106.6,106.6,0,0,0,30.1,46.5c3.9,3.6,8,7.1,9.8,12.3,1.2,3.5,1.3,7,1.5,10.4l4.3,82.1c1.1,22.4,4.5,91.6,5.4,112.9a90,90,0,0,1,.1,10.4,19.2,19.2,0,0,1-3.5,10c-5.5,7.8-18.1,13-15.9,24.2a.6.6,0,1,1-1.1.3Z" transform="translate(-45.1 -183)"/><path class="cls-16" d="M919.1,671.4c-10.3,71.4-23.8,147.6-32.7,219.1-.8,4.9-.8,10.2-3.9,14.4a.6.6,0,0,1-.8.2.5.5,0,0,1-.1-.8c2.8-4.1,2.7-9.2,3.3-13.9,5.7-53.9,14.3-107.6,23.3-160.9l9.7-58.3a.6.6,0,0,1,1.2.2Z" transform="translate(-45.1 -183)"/><path class="cls-17" d="M755.2,204.2c-4.7,10.1-6.4,21.5-7.7,32.7-1.8,15.7-2.9,31.7.4,47.1.2,1,.8,2.2,1.7,1.8a1.1,1.1,0,0,0,.7-.9,25.1,25.1,0,0,0,2.3-8.1c.2-1.8,1-10.9,4.2-11.1s2.8,6.1,3.8,4.9,0-5.4.9-8.5,3.2-3.3,4-1.2,1.5,3.1,2.2,2.7c.1-2.8.5-8.4,2.6-9.2s2.6,2.9,4,2.7a2.4,2.4,0,0,0,1.1-.6,36.3,36.3,0,0,1,13.9-11.9,1.3,1.3,0,0,0,.6-.9,1.2,1.2,0,0,0-.4-.8c-9.3-12.9-20.8-24.4-30.1-37.2a5.7,5.7,0,0,0-1.9-1.9C756.7,203.4,755.5,203.5,755.2,204.2Z" transform="translate(-45.1 -183)"/><path class="cls-17" d="M912.1,194.4c6.2,9.3,9.6,20.3,12.6,31.3,4.2,15.2,7.6,30.9,6.6,46.6,0,1-.5,2.2-1.3,2.1a1.6,1.6,0,0,1-.9-.9,29.2,29.2,0,0,1-3.5-7.6c-.5-1.8-2.6-10.6-5.8-10.4-1.7.2-1.9,6.4-3,5.4s-.8-5.3-2.2-8.2-3.7-2.8-4.1-.7-1,3.3-1.8,3.1c-.5-2.8-1.7-8.2-3.9-8.7s-2.1,3.2-3.6,3.2a1.5,1.5,0,0,1-1.1-.4,37,37,0,0,0-15.6-9.7,1.1,1.1,0,0,1-.7-.8,2.9,2.9,0,0,1,.2-.9c7.3-14.1,17-27.1,24.3-41.2a5.7,5.7,0,0,1,1.5-2.2C910.6,193.9,911.7,193.8,912.1,194.4Z" transform="translate(-45.1 -183)"/><path class="cls-18" d="M906,904.9a11.7,11.7,0,0,0-3.2,11.2,1.3,1.3,0,0,1-2.4,1.1c-2.2-3.5-1.3-8.5,1.5-11.5.7-.7,3.7-3.2,4.3-1.6a.8.8,0,0,1-.2.8Z" transform="translate(-45.1 -183)"/><path class="cls-18" d="M922,906.9c-3.1,1.6-5.4,4.4-5.2,8a12.5,12.5,0,0,0,.8,3.2,1.4,1.4,0,0,1-.7,1.8,1.3,1.3,0,0,1-1.5-.4,8.8,8.8,0,0,1,2-12.6c.9-.7,4.8-2.5,5-.8a.7.7,0,0,1-.4.8Z" transform="translate(-45.1 -183)"/><path class="cls-18" d="M852,894.7c-2.8,3.5-9.9,11.5-5,15.4a1.3,1.3,0,0,1-1.1,2.4c-4.5-1.7-4.6-7.7-2.4-11.2a21.1,21.1,0,0,1,7.6-7.8.8.8,0,0,1,.9,1.2Z" transform="translate(-45.1 -183)"/><path class="cls-18" d="M839.3,890.7c-2.8,4-9.6,10.8-7,16a1.3,1.3,0,0,1-.2,1.9c-1.7,1-3-1.7-3.3-3-1.1-4.8,2-9.5,5.4-12.7a26.9,26.9,0,0,1,4.1-3.3.7.7,0,0,1,1,1.1Z" transform="translate(-45.1 -183)"/><path class="cls-18" d="M775,887.7a15.5,15.5,0,0,0-5.3,9.8,4.2,4.2,0,0,0,.3,2.9,1.3,1.3,0,0,1-1.6,2c-4-3.2-1.3-10.7,1.9-13.6.7-.7,4.3-3.6,4.9-2a.9.9,0,0,1-.2.9Z" transform="translate(-45.1 -183)"/><path class="cls-18" d="M785.8,889.6c-3.5,3.7-7.5,9.2-4.1,14.2a1.3,1.3,0,0,1-1.8,1.8c-3-2.4-3.3-6.8-1.9-10.2a12.2,12.2,0,0,1,2.9-4.1,18.5,18.5,0,0,1,4-2.9.7.7,0,0,1,1,.4.6.6,0,0,1-.1.8Z" transform="translate(-45.1 -183)"/><path class="cls-19" d="M923.7,347.6c-1.4-8.5-13.6-18.9-23.8-20.1a27.9,27.9,0,0,0-26.4,12.4c-1.9,2.9-8.4,8.6-8.6,16.4-.4,15.1,19,33.1,41.4,22.4C915.2,374.4,925.8,360.5,923.7,347.6Z" transform="translate(-45.1 -183)"/><path class="cls-20" d="M866.4,352.7c.5-14,18-25.6,27.7-23.9s12.9,13.6,11.6,23.9-7,16.8-16.8,18.7S866,363.1,866.4,352.7Z" transform="translate(-45.1 -183)"/><path class="cls-19" d="M800.5,348.3c-1.2-11.8-14.6-21.2-23.7-22.4-18.5-2.5-30.6,14.2-31.9,28.6-1.4,15.9,19.7,36.5,40,25.7C792.5,376.1,802.2,364.3,800.5,348.3Z" transform="translate(-45.1 -183)"/><path class="cls-20" d="M745.8,350.5c0-19.6,25.5-25.4,34.3-21.7s11.7,16.9,8.1,26.8c-3,8.4-9.9,16.8-20.4,16.8S745.8,362,745.8,350.5Z" transform="translate(-45.1 -183)"/><path class="cls-21" d="M802.3,389.8c1.7,8.5,9.2,15.3,18.1,12.5,5.3-1.2,6.6-7.5,7.1-12.3.3-3.2.6-6.8.6-10a.7.7,0,0,1,1.3-.1,69.6,69.6,0,0,1,.4,10.2c-.2,3.6-.7,7.1-2.6,10.4s-8.5,5.7-13.3,5a15.4,15.4,0,0,1-11.1-8.7,16.8,16.8,0,0,1-1.8-6.9c-.1-.3.2-.6.6-.7a.7.7,0,0,1,.7.6Z" transform="translate(-45.1 -183)"/><path class="cls-21" d="M860.5,386.3c0,10.6-7.8,19.3-18.8,18.3-6.7-.2-11.8-5.5-13.1-11.9-.8-3.4-.3-7.1-.2-10.6a.7.7,0,0,1,1.3,0c.3,2.3.2,4.6.5,6.9a16.7,16.7,0,0,0,3.6,8.8c4.7,5.8,14.7,5,19.8.1a16.8,16.8,0,0,0,3.7-5.3,21.8,21.8,0,0,0,1.8-6.3.7.7,0,0,1,1.4,0Z" transform="translate(-45.1 -183)"/><path class="cls-22" d="M923.3,344.9c-3.5-7-9.1-13.1-16.2-16.4A31.9,31.9,0,0,0,883,328a30.6,30.6,0,0,0-18.2,28.2c1.3-1.9,3.2-6,4.5-7.8,4.4-6.3,6.9-8.1,13.3-12.3a28.9,28.9,0,0,1,23.1-3.6C913.5,334.6,920.3,340,923.3,344.9Z" transform="translate(-45.1 -183)"/><path class="cls-22" d="M799.6,343.4c-3.2-6.9-8.5-12.9-15.1-16.2s-15.4-3-22.3-.4c-8.9,3.3-19.4,13.6-17.9,28.8,1.2-1.9,6.2-12.8,18.7-19.9a26.4,26.4,0,0,1,21.8-1.6C794.1,337.7,798,344.1,799.6,343.4Z" transform="translate(-45.1 -183)"/><path class="cls-17" d="M839.7,371a5.3,5.3,0,0,0-4.7-.9c-1.9.6-3.5,2.3-5.5,2.3s-4.6-3.1-7.2-2.9-3.2,1.9-3.4,3.8a8.7,8.7,0,0,0,1.7,5.1,16.9,16.9,0,0,0,3.8,4.2,8.7,8.7,0,0,0,3.6,1.8c2.4.4,4.9-1,6.9-2.6a16.3,16.3,0,0,0,4.2-4.5C840.2,375.5,841.6,372.6,839.7,371Z" transform="translate(-45.1 -183)"/><path class="cls-11" d="M795.3,348.8a5.1,5.1,0,1,1-10.2,0,5.1,5.1,0,1,1,10.2,0Z" transform="translate(-45.1 -183)"/><path class="cls-11" d="M911.6,346.5a5.1,5.1,0,1,1-5.1-5.2A5.1,5.1,0,0,1,911.6,346.5Z" transform="translate(-45.1 -183)"/><path class="cls-11" d="M801,385a597,597,0,0,0-128.5,30l-8.2,3a.6.6,0,0,1-.6-.3.5.5,0,0,1,.3-.5l8.2-3.2a507.4,507.4,0,0,1,111.2-27.8c4.3-.6,13.2-1.6,17.5-2a.5.5,0,0,1,.5.3.7.7,0,0,1-.4.5Z" transform="translate(-45.1 -183)"/><path class="cls-11" d="M796.3,390.8a521.9,521.9,0,0,0-111.8,39.6l-7.1,3.5a.4.4,0,0,1-.5-.2c-.1-.2-.1-.4.1-.5l7-3.7a439.2,439.2,0,0,1,96.6-36.1l15.5-3.4a.4.4,0,1,1,.2.8Z" transform="translate(-45.1 -183)"/><path class="cls-11" d="M873.6,384.5A358.9,358.9,0,0,1,998.3,422l7.7,4.1a.5.5,0,0,1,.2.6.3.3,0,0,1-.5.1l-7.8-3.9a410.9,410.9,0,0,0-98.6-33.3l-17.2-3.1-8.6-1.2c-.2,0-.3-.2-.3-.5s.2-.3.4-.3Z" transform="translate(-45.1 -183)"/><path class="cls-11" d="M870.4,390.4c41.3,13.8,80.2,35,118,56.3a.5.5,0,0,1,.1.6c-.1.2-.3.2-.5.1-35.5-18.8-72.7-39-110.2-53.4l-7.7-2.9a.4.4,0,0,1-.2-.5c0-.2.3-.3.5-.2Z" transform="translate(-45.1 -183)"/><path class="cls-16" d="M794.7,686.1a14.8,14.8,0,0,0-.1-2.1,34.7,34.7,0,0,0-.6-4.5.9.9,0,0,0-1.2-.6.9.9,0,0,0-.6,1.1,28.7,28.7,0,0,1,.5,4.1v2a5.4,5.4,0,0,0,.1,2.2.9.9,0,0,0,1.6.3A5.4,5.4,0,0,0,794.7,686.1Z" transform="translate(-45.1 -183)"/><path class="cls-16" d="M799.1,686.9a12.7,12.7,0,0,0-.6-2.8,1,1,0,0,0-1.1-.7.9.9,0,0,0-.6,1.1l.3,1.3v1.1a5.7,5.7,0,0,1,.1,1.3v.8c.1.2.1.4.2.6a.7.7,0,0,0,1.3.2l.3-.8a1.9,1.9,0,0,0,.1-.8A5.3,5.3,0,0,0,799.1,686.9Z" transform="translate(-45.1 -183)"/><path class="cls-16" d="M803.6,691.4a1.3,1.3,0,0,0-.5-.6.9.9,0,0,0-.7-.1,1.1,1.1,0,0,0-.7,1.3,4.3,4.3,0,0,1,.1.5v.6c-.1.2-.1.4-.2.6v.6c-.1.2,0,.3,0,.5s.2.3.3.4h.6c.8-.2,1.1-1,1.3-1.8A5,5,0,0,0,803.6,691.4Z" transform="translate(-45.1 -183)"/><path class="cls-16" d="M935.3,771.8a1.1,1.1,0,0,0-1.5.4l-1.8,3.1a8.9,8.9,0,0,0-.9,1.6,3,3,0,0,0-.6,2,.8.8,0,0,0,1.2.7,3.2,3.2,0,0,0,1.3-1.5,6.5,6.5,0,0,0,.9-1.6c.6-1.1,1.2-2.2,1.7-3.3A1,1,0,0,0,935.3,771.8Z" transform="translate(-45.1 -183)"/><path class="cls-16" d="M937.6,779.3a.9.9,0,0,0-1.3,0c-.7.8-1.2,1.6-1.8,2.4a13.6,13.6,0,0,0-1.3,2.4,1.9,1.9,0,0,0-.1.8,1.3,1.3,0,0,0,.5.7,1.4,1.4,0,0,0,.9.1,1.8,1.8,0,0,0,.7-.5,17,17,0,0,0,1.5-2.2l1.2-2.4A1.1,1.1,0,0,0,937.6,779.3Z" transform="translate(-45.1 -183)"/><path class="cls-16" d="M938.5,788a1.3,1.3,0,0,0-1.5.8,12.1,12.1,0,0,1-.5,1.8.6.6,0,0,1-.1.4c0,.3-.1.5-.1.7s-.1.6-.1.9a1.1,1.1,0,0,0,.8.9.8.8,0,0,0,1-.4,2,2,0,0,0,.4-.8l.3-.6c0-.2.1-.3.1-.5l.5-1.7A1.3,1.3,0,0,0,938.5,788Z" transform="translate(-45.1 -183)"/><path class="cls-16" d="M850.9,798.6a2.3,2.3,0,0,0-.3-1.1l-.4-.8A6.6,6.6,0,0,0,849,795a1.2,1.2,0,0,0-1.8,0,1.3,1.3,0,0,0,0,1.8c0,.1.1.1.1.2l.2.3.5.7a10.1,10.1,0,0,0,.7,1.5l.4.6c0,.1.1.4.1.3s.1.2.1.4a8.3,8.3,0,0,1,.4,1.5.6.6,0,0,0,1.1,0A7.7,7.7,0,0,0,850.9,798.6Z" transform="translate(-45.1 -183)"/><path class="cls-16" d="M849,804.2l-1.5-2.7a1.3,1.3,0,0,0-2.2,1.3l1.5,2.6a6.5,6.5,0,0,0,2,2.6.9.9,0,0,0,1.3-.8A6.4,6.4,0,0,0,849,804.2Z" transform="translate(-45.1 -183)"/><path class="cls-16" d="M910.6,536.1l-1.2,4.7c-.2.8-.5,1.5-.7,2.3a5.8,5.8,0,0,0-.3,2.6,1,1,0,0,0,1.7.5,4.5,4.5,0,0,0,.9-2.5c.2-.8.3-1.5.5-2.3s.6-3.2,1-4.8S910.9,534.9,910.6,536.1Z" transform="translate(-45.1 -183)"/><path class="cls-16" d="M915.5,538.5a.4.4,0,0,0-.8-.1,16.8,16.8,0,0,0-1.3,5,20,20,0,0,0-.5,2.6,3.5,3.5,0,0,0-.3,1.4,2,2,0,0,0,.3,1.5,1,1,0,0,0,1.6.2,4.7,4.7,0,0,0,.9-2.8,22.8,22.8,0,0,0,.2-2.6A13,13,0,0,0,915.5,538.5Z" transform="translate(-45.1 -183)"/><path class="cls-16" d="M921.6,540.4c-.1-1.2-.3-2.3-.4-3.5s-.5-1.2-1.2-1.1a1.2,1.2,0,0,0-1.2,1.1l.3,3.6a8,8,0,0,0,.8,3.7,1,1,0,0,0,1.7-.2A7.3,7.3,0,0,0,921.6,540.4Z" transform="translate(-45.1 -183)"/><path class="cls-16" d="M978.1,373.5v-.3a3.5,3.5,0,0,0-.5-1.3l-1.3-1.8c-.9-1.1-1.8-2.3-2.8-3.4a1.2,1.2,0,0,0-1.7,0,1.4,1.4,0,0,0,0,1.7,10.1,10.1,0,0,1,1.3,1.6h.2l.4.5.6.8c.4.5.7,1.1,1.1,1.7l.3.4h0l.6.6.4.2h.1l.4.3a.7.7,0,0,0,1-.6C978.1,373.9,978.2,373.7,978.1,373.5Z" transform="translate(-45.1 -183)"/><path class="cls-16" d="M975.7,373.6Z" transform="translate(-45.1 -183)"/><path class="cls-16" d="M974.9,377.8l-.3-.7a7.1,7.1,0,0,0-1-1.4l-2-2.7a1.8,1.8,0,0,0-.7-.5,1.2,1.2,0,0,0-1,.1,1.3,1.3,0,0,0-.4,1.7l2,2.7a8.1,8.1,0,0,0,1.2,1.4,3.3,3.3,0,0,0,1.5,1.1.8.8,0,0,0,1-.7A1.9,1.9,0,0,0,974.9,377.8Z" transform="translate(-45.1 -183)"/><path class="cls-16" d="M834.7,264.7c-2,.8-4,2.1-6.2,2.2a3.5,3.5,0,0,1-3.7-3.1,9.6,9.6,0,0,1,0-2.4l2.5-1.9,4.3-3.4c.5-.3.4-1.1,0-1.5-2.1-2-5.3-.9-6.9,1.3a12.4,12.4,0,0,0-1.9,4c-1.4.7-3.1,1-4.1-.4s1.5-4.4,2.6-5.5a28.5,28.5,0,0,1,5.7-4.7c1.1-.7.1-2.5-1-1.8a27.8,27.8,0,0,0-7.2,6c-1.8,1.9-3.8,4.8-2,7.3s3.6,2.2,5.7,1.7v1.1c.3,2.7,1.9,5.1,4.7,5.5a9.9,9.9,0,0,0,8.3-3.1C835.9,265.5,835.5,264.4,834.7,264.7Zm-5.8-9.1-2.7,2.1C826.8,256.7,827.8,255.6,828.9,255.6Z" transform="translate(-45.1 -183)"/><path class="cls-16" d="M742.6,299.8a1.1,1.1,0,0,0-1.3,0l-2.1,2.6-1,1.2a8.6,8.6,0,0,0-1,1.6.8.8,0,0,0,.3,1.1.9.9,0,0,0,1.2,0,7.4,7.4,0,0,0,1.2-1.3,11.3,11.3,0,0,0,1-1.3l2-2.6A1,1,0,0,0,742.6,299.8Z" transform="translate(-45.1 -183)"/><path class="cls-16" d="M742.9,305a.7.7,0,0,0-1,.2c-.6.9-1.3,1.7-1.9,2.5l-.9,1.3a5.4,5.4,0,0,0-.7,1.3.9.9,0,0,0,.2,1.2,1,1,0,0,0,1.2-.1l1.1-1.3.7-1.4c.6-.9,1.1-1.8,1.6-2.7A.7.7,0,0,0,742.9,305Z" transform="translate(-45.1 -183)"/><path class="cls-16" d="M827,860.6a1.2,1.2,0,0,0-1.1-1.1,1,1,0,0,0-1.1,1.1,35.3,35.3,0,0,1,0,4.6,17.7,17.7,0,0,0-.1,2.3,16.4,16.4,0,0,0,.2,2.3.6.6,0,0,0,1.1.2,7.6,7.6,0,0,0,1.2-4.7A24.3,24.3,0,0,0,827,860.6Z" transform="translate(-45.1 -183)"/><path class="cls-16" d="M822.4,866.2a1,1,0,0,0-1-1,1.1,1.1,0,0,0-1,1v2.9a8.1,8.1,0,0,0,.1,1.6,7.4,7.4,0,0,0,.4,1.4c.1.5.9.5,1.1,0l.3-1.4a8.1,8.1,0,0,0,.1-1.6Z" transform="translate(-45.1 -183)"/></g><path class="cls-23" d="M759.7,848.4c14.1,22,25.2,48.2,19.4,73.7s-27.5,44.3-51.3,54.5-50,13.2-75.6,17.3q-23.9,3.9-47.4,9.3c-7.9,1.8-16.3,3.7-23.9,1s-13.3-12.4-9-19.2a16,16,0,0,1,6.4-5.4c17.2-9.8,37.9-9.6,57.5-11.8a233.4,233.4,0,0,0,84.7-26.1c12.2-6.5,24.3-14.6,31.2-26.6s7.1-28.9-2.9-38.5C752.2,865.8,755.6,855.1,759.7,848.4Z" transform="translate(-45.1 -183)"/><path class="cls-24" d="M527.7,821.6c-4.2,72.2-8.7,92.1-17.7,107.3-6.3,10.5-17,13.6-29.3,13.4-6.3-.1-20-3-27.3-7.7-2.6-1.6-4.3-3.5-4.6-5.6-1.7-12.3,11-16.1,12.2-19.9,28.1-85-5.1-179.5,2.6-234.1,5.2-36.6,21.2-59.6,27.5-73.3a132.2,132.2,0,0,1-60.8-57.2c-3.2-6.1-6-12.7-6.2-19.7-.2-9.8,4.8-18.8,8.2-28,4-10.9,5.7-22.5,8.5-33.8s7.1-22.5,15.2-30.9a194.3,194.3,0,0,1,20-100.6c1.9-3.7,4-7.6,7.6-9.8,5.5-3.3,12.8-1.6,17.8,2.4s8.2,9.8,11.2,15.4c6.9,12.9,13.8,25.9,20.8,41.1a196.3,196.3,0,0,1,69.8,11c13.3-13.3,27-26.2,41.4-38.3,6-5,12.4-10.1,19.9-12.4a9.7,9.7,0,0,1,6.5-.3,10,10,0,0,1,3.7,3.4c3.1,4.8,3.9,10.6,4.4,16.3,2,25.6-1.7,51.5-9.6,76.8,13.9,24.5,10,54.9,17.5,82,1.1,4.1,2.5,8.1,2.7,12.4s-1.1,10.2-3,15c-6.8,17.9-19.5,33.5-34.7,45.1q33.3,64.6,70,127.4a476.3,476.3,0,0,1,26.9,52.8c46.3,108.8-38,147.5-48.7,155.5-19.6,14.6-36.9,30.5-61.3,32.5-9.1.7-20,.2-25.1-7.5s-.8-18.8,5.3-26.1l1.7-2a92.3,92.3,0,0,1-41.4-4.1l-.3,2.9c-1.2,11.2-2.9,23.5-11.5,30.9-5.7,4.8-14.9,3.7-22.3,4.1s-24.7-4.9-25.2-11.1c-.8-11.7,9.4-17.6,10.3-20.8C534.9,910.1,532.2,874.1,527.7,821.6Z" transform="translate(-45.1 -183)"/><path class="cls-25" d="M613.2,952.7c-5.8-8.8-.7-20.1,5.3-27.5s13.7-13.7,15.9-22.9-1-18.8-2.7-27.9-4-18.8-5.2-28.5c-3.3-26.3,2.1-48.3,22.4-66.5a67.4,67.4,0,0,1,39.7-16.7.8.8,0,0,1,.8.7.8.8,0,0,1-.7.7c-23.6,2.2-45.2,18.2-54.7,39.8-12,27.1-1.1,56.5,3.2,84.1,3.3,18.9-5.6,25.9-17,38.6-5.7,6.8-10.8,16.9-5.8,25.3.2.4.2.8-.2,1a.8.8,0,0,1-1-.2Z" transform="translate(-45.1 -183)"/><path class="cls-25" d="M521.1,612.2c-40-6.5-76-33.8-93.4-70.5-2.4-5.2-4.3-10.9-4.3-16.8a.8.8,0,0,1,.7-.8.8.8,0,0,1,.7.7,41.4,41.4,0,0,0,4.9,16c15.5,30.3,43.2,54,75.3,65.3a147.2,147.2,0,0,0,16.4,4.7c.4,0,.6.4.5.8s-.4.6-.8.6Z" transform="translate(-45.1 -183)"/><path class="cls-25" d="M529.7,925.9l.6-3.3c.3-2.1.5-4.6.6-6.7.9-32.9-2-65.8-4.2-98.6-1-15.8-2.9-38.3-4.3-54.3-.8-7.6-1.1-19.5-3.2-26.8a120.6,120.6,0,0,0-4.8-12.6L509.1,711c-.1-.4,0-.8.4-.9a.7.7,0,0,1,.9.3l5.7,12.4a131.7,131.7,0,0,1,5.2,12.8c2.4,7.6,2.8,19.2,3.7,27.2,1.8,18.1,3.3,36.2,4.7,54.3,2.1,31.8,4.5,63.6,3.2,95.5l-.3,3.4v1.7a60.3,60.3,0,0,1-1.4,8.5.8.8,0,0,1-.9.6.7.7,0,0,1-.5-.9Z" transform="translate(-45.1 -183)"/><path class="cls-25" d="M631.3,687.5c.1,58.4-30.7,110.5-41.9,166.7-4.5,22.5-6.7,45.4-9.2,68.2a91.5,91.5,0,0,1-3,17.1c-1.7,5.6-4.6,11.1-9.2,14.9a.7.7,0,0,1-1-.1.8.8,0,0,1,.1-1c4.3-3.7,6.8-8.9,8.3-14.3a85.3,85.3,0,0,0,2.7-16.8c1-11.5,2.1-22.9,3.3-34.4a347.6,347.6,0,0,1,13.8-67.7c10.1-32.9,24-64.7,30.7-98.6a185.5,185.5,0,0,0,3.9-34,.8.8,0,0,1,.8-.7.7.7,0,0,1,.7.7Z" transform="translate(-45.1 -183)"/><path class="cls-25" d="M460.2,920.8c-2.1,4.7-5.1,8.9-5.1,14.2a.7.7,0,0,1-.8.8.8.8,0,0,1-.6-.4,11.4,11.4,0,0,1,.3-8.7,18.7,18.7,0,0,1,5.1-6.7c.5-.5,1.4.2,1.1.8Z" transform="translate(-45.1 -183)"/><path class="cls-25" d="M630,935.3a29.5,29.5,0,0,0-8.3,22,.8.8,0,0,1-.7.8.7.7,0,0,1-.7-.5,14.9,14.9,0,0,1-.9-6.6c.3-6.7,3.9-13.4,9.7-16.8.7-.5,1.4.5.9,1.1Z" transform="translate(-45.1 -183)"/><path class="cls-25" d="M642.1,938.1a29.5,29.5,0,0,0-5.3,15.6,27.3,27.3,0,0,0,.3,5.7.8.8,0,0,1-.6.8.9.9,0,0,1-.8-.4,17.8,17.8,0,0,1-1.6-6,19.7,19.7,0,0,1,7-16.7.7.7,0,0,1,1,1Z" transform="translate(-45.1 -183)"/><path class="cls-19" d="M580,487.6c-4-11.3.2-22,5.4-28.2a26.9,26.9,0,0,1,19-8.9c7.2-.2,16.6,3.6,19.5,10.2,3.9,9-.6,19.2-3,23.6a23.1,23.1,0,0,1-5.8,7c-4.8,4-10.9,6.5-17.1,6.1S582.7,495.3,580,487.6Z" transform="translate(-45.1 -183)"/><path d="M583.7,471.5c0-8.9,6.6-17.5,14.9-17.5s15.5,8.3,15.9,17.3a16.1,16.1,0,0,1-15.8,16.5C590.4,487.8,583.7,480.5,583.7,471.5Z" transform="translate(-45.1 -183)"/><path d="M579.9,488.2c-1.3.1-3.9-6.5-3.1-15.5,1.1-10.9,9-19.9,18-22.6,16.8-5.1,28.3,7.2,28,8.6s-5.6-4.6-16-4.9a20.8,20.8,0,0,0-15.9,5.8c-9.7,8.9-11.3,15.9-11.3,22.7C579.6,486.7,581,488.1,579.9,488.2Z" transform="translate(-45.1 -183)"/><path class="cls-19" d="M519.3,483c4-11.3-.2-22-5.4-28.2a26.1,26.1,0,0,0-19-8.9c-7.2-.3-17.9,5.1-20.4,11.8-6.7,18,9.4,37.8,26.5,37.1C509.6,494.4,516.6,490.6,519.3,483Z" transform="translate(-45.1 -183)"/><path d="M517.6,470c0-9-6.6-17.6-14.9-17.6s-15.5,8.4-15.9,17.4,7.5,16.5,15.8,16.5S517.6,479,517.6,470Z" transform="translate(-45.1 -183)"/><path d="M519.1,483.8c1.3.1,4-6.4,3.1-15.5-1-10.9-9-19.9-17.9-22.6-16.8-5.1-28.4,7.2-28,8.6s5.5-4.6,16-4.9a20.5,20.5,0,0,1,15.8,5.8c9.8,8.9,11.3,15.9,11.3,22.7C519.4,482.3,518,483.7,519.1,483.8Z" transform="translate(-45.1 -183)"/><path class="cls-26" d="M471.7,419.6a160.1,160.1,0,0,1,6.7-63.4c2-6.3,8.3-21.2,12.2-22.1,6.2-1.4,19.6,37.2,26.3,47.2A112.4,112.4,0,0,0,499.7,392l-5.9-7.5c-1.1-1.5-3.2-3.1-4.9,1.7s-1.3,6.2-.8,10.9c-.1-.4-3.9-8.3-5.8-4.8s-.9,8.4-.9,14.2c.2-1.5-1.3-6.9-3.5-5s-2,8.5-2.3,10A23.5,23.5,0,0,1,471.7,419.6Z" transform="translate(-45.1 -183)"/><path class="cls-26" d="M662.7,432.4c9.5-19.2,8.7-69.5,1.4-71.5s-37,27.9-44,37.3a73,73,0,0,1,16.7,10.4c2.7-1.6,5.5-8.1,9.1-10.3,1.6-1,4.1-1.7,3.9,3.4s-.9,6.2-3,10.4c.3-.3,5.9-6.1,7.8-4.1s-.2,7.7-2.2,13.1c.4-1.5,4.7-7.1,6.3-5.6s-1.9,7.7-1.4,9.1S660.3,428.2,662.7,432.4Z" transform="translate(-45.1 -183)"/><path class="cls-25" d="M471.7,926.2c-2.5,3.8-5.4,7.3-5.5,12a.7.7,0,0,1-1.4.2c-1.7-3.7,0-8.2,2.8-10.9a9.6,9.6,0,0,1,3.1-2.3.8.8,0,0,1,1,.2,1.1,1.1,0,0,1,0,.8Z" transform="translate(-45.1 -183)"/><path class="cls-25" d="M525,951.5a14.5,14.5,0,0,1,7.7-15.2.7.7,0,0,1,.8,1.1,31.6,31.6,0,0,0-4.4,6.6,33.6,33.6,0,0,0-2.7,7.5.7.7,0,0,1-1.4,0Z" transform="translate(-45.1 -183)"/><path class="cls-25" d="M534.3,955.2c-.1-5.2,1.9-11.5,7.2-13.6a.6.6,0,0,1,.9.4.8.8,0,0,1-.1.8,18.6,18.6,0,0,0-2.1,2.8,37.3,37.3,0,0,0-3,6.4,21.7,21.7,0,0,1-1.5,3.5.8.8,0,0,1-1,.4,1,1,0,0,1-.4-.7Z" transform="translate(-45.1 -183)"/><path d="M549.7,510c-.8,2.9-1,10.2-7.9,14.4-2.5,1.6-6.4,2.9-9.1,1.7,2.8,6.4,10.5,9.3,16.3,9.4s14-4.1,15.9-9.3c-5.7-.4-10.5-3.4-12.7-7.7C550.9,516,550.4,512.6,549.7,510Z" transform="translate(-45.1 -183)"/><path class="cls-11" d="M540.1,524.9a6.5,6.5,0,0,0,1.1,2.2.5.5,0,0,0,.5.3.8.8,0,0,0,.4-.4,12.8,12.8,0,0,0,1.3-3.9A5.9,5.9,0,0,1,540.1,524.9Z" transform="translate(-45.1 -183)"/><path class="cls-11" d="M554.8,522.5a12.7,12.7,0,0,0,.5,4.3c.1.1.2.3.4.3h.3a8.8,8.8,0,0,0,1.9-2.4c0-.1.1-.1,0-.2s-.1-.1-.2-.2a5.7,5.7,0,0,1-2.3-1.2Z" transform="translate(-45.1 -183)"/><path class="cls-11" d="M352.3,534l-.4-.9a349.8,349.8,0,0,1,150.8-27.6v1A347.5,347.5,0,0,0,352.3,534Z" transform="translate(-45.1 -183)"/><path class="cls-11" d="M350.1,562.5l-.5-.8a329.1,329.1,0,0,1,143.8-44.4v1A328.9,328.9,0,0,0,350.1,562.5Z" transform="translate(-45.1 -183)"/><path class="cls-11" d="M765.4,524.6a444.2,444.2,0,0,0-146.1-15.1v-1a443.7,443.7,0,0,1,146.4,15.2Z" transform="translate(-45.1 -183)"/><path class="cls-11" d="M763.1,556.3A448.6,448.6,0,0,0,624.9,523v-1a447.7,447.7,0,0,1,138.6,33.4Z" transform="translate(-45.1 -183)"/><path class="cls-11" d="M495.6,458.2a3.8,3.8,0,1,1-7.5,0,3.8,3.8,0,1,1,7.5,0Z" transform="translate(-45.1 -183)"/><path class="cls-11" d="M590.5,469.6a3.8,3.8,0,0,1-3.9,3.8,3.8,3.8,0,1,1,0-7.6A3.8,3.8,0,0,1,590.5,469.6Z" transform="translate(-45.1 -183)"/><path class="cls-25" d="M518.6,510.4a17.6,17.6,0,0,0,9.4,11.5c7,3,14.2,1.6,17.6-5.6,1.8-3.6,2.3-7.9,2.7-12.2a.7.7,0,0,1,1.4,0c.4,6.7-.4,14.4-5.9,19.1s-11.7,3.9-17,1.3a18.3,18.3,0,0,1-9.6-13.8.7.7,0,0,1,1.4-.3Z" transform="translate(-45.1 -183)"/><path class="cls-25" d="M578.6,517c-2.7,4.8-7.8,8.9-13.5,9.1s-14-4-15.6-10.9a28.9,28.9,0,0,1-.6-11.7c.1-.4.4-.7.8-.6s.6.3.6.7a33.7,33.7,0,0,0,1.8,10.9c1.8,5.9,8.3,9,14.2,8.7a16.7,16.7,0,0,0,7.2-3.2,27.9,27.9,0,0,0,3.9-3.8c.5-.7,1.6,0,1.2.8Z" transform="translate(-45.1 -183)"/><path class="cls-27" d="M562.1,492.7c-.9-1.6-2.8-1.9-6.6-.7a21.8,21.8,0,0,1-7.2,1.2c-1.7-.1-4-1.1-5.6-1.6s-3.7-1.8-5.4-1.3-2.7,5.9,2.7,11.3c2.2,2.2,8.3,8,14,3C557.6,501.5,563.3,494.9,562.1,492.7Z" transform="translate(-45.1 -183)"/><path class="cls-25" d="M505,701.3l-.6-.4-.3-.2c-.1,0-.1,0-.1-.1l-1.1-.9-.5-.6c-.1-.1-.2-.1-.2-.2l-.2-.2h0c.1.1,0,0,0-.1s-.1-.1-.2-.2l-.2-.2a4.3,4.3,0,0,1-.4-.7,1.1,1.1,0,0,0-1.5-.4,1.3,1.3,0,0,0-.4,1.6,12.4,12.4,0,0,0,4.5,4.6,1.1,1.1,0,0,0,1.6-.4A1.2,1.2,0,0,0,505,701.3Z" transform="translate(-45.1 -183)"/><path class="cls-25" d="M503.6,705.1l-.7-.5-.4-.3h-.1c-.1,0-.3-.1-.1,0l-1.3-1.1-1.2-1.2-.6-.7-.6-.5a.9.9,0,0,0-1.3-.1.9.9,0,0,0-.2,1.2,2,2,0,0,0,.4.8l.7.9,1.2,1.2a22.6,22.6,0,0,0,3.1,2.3,1.1,1.1,0,0,0,1.5-.4A1.1,1.1,0,0,0,503.6,705.1Z" transform="translate(-45.1 -183)"/><path class="cls-25" d="M503.8,693.1l-1.8-1.7-.7-.9-.4-.5a.2.2,0,0,1-.2-.2h-.1c-.2-.2-.3-.4-.6-.5h-.8a1.1,1.1,0,0,0-.3,1.4l.6,1.1.9,1.1a16.2,16.2,0,0,0,1.9,1.8,1.5,1.5,0,0,0,.8.3c.2,0,.6-.1.7-.3a1.2,1.2,0,0,0,.4-.8C504.1,693.6,504.1,693.3,503.8,693.1Z" transform="translate(-45.1 -183)"/><path class="cls-25" d="M639.4,819a.8.8,0,0,0-1,.5l-.8,3.6a15.3,15.3,0,0,0-.7,3.6c0,.7,1.1,1.1,1.4.4a14.6,14.6,0,0,0,.9-3.6c.3-1.2.5-2.4.7-3.5A.8.8,0,0,0,639.4,819Z" transform="translate(-45.1 -183)"/><path class="cls-25" d="M642.6,822.5a.6.6,0,0,0-.7.4,15.9,15.9,0,0,0-1.3,6.1.9.9,0,0,0,.8.9.8.8,0,0,0,.8-.9c.1-1,.1-2,.2-3s.3-1.9.5-2.9S642.8,822.6,642.6,822.5Z" transform="translate(-45.1 -183)"/><path class="cls-25" d="M647.1,831.9a28.3,28.3,0,0,0-.2-2.9,1.1,1.1,0,0,0-1.2-1.1,1,1,0,0,0-1.1,1.1,28.3,28.3,0,0,0,.2,2.9c.1.5.1.9.2,1.4a1.9,1.9,0,0,0,.1.8l.3.8a.9.9,0,0,0,.8.6,1,1,0,0,0,.8-.6,10,10,0,0,0,.2-1.6A6.6,6.6,0,0,0,647.1,831.9Z" transform="translate(-45.1 -183)"/><path class="cls-25" d="M533.3,614.1a6.1,6.1,0,0,0-1.3-1.5,13.3,13.3,0,0,0-3.5-2,1.4,1.4,0,0,0-1.6.9,1.4,1.4,0,0,0,1,1.6.1.1,0,0,0,.1.1l.4.2.7.4.7.4.3.2.2.2.3.2.3.3.6.5,1.5,1a.9.9,0,0,0,.7,0,.6.6,0,0,0,.2-.7A3.9,3.9,0,0,0,533.3,614.1Z" transform="translate(-45.1 -183)"/><path class="cls-25" d="M542.1,613.6c-.2-.3-.3-.6-.7-.8a1,1,0,0,0-.5-.4l-1.2-.7-2.4-1.4a1.3,1.3,0,0,0-1.8.4,1.3,1.3,0,0,0,.5,1.8l2.4,1.4,1.2.7.6.3h1.1A.9.9,0,0,0,542.1,613.6Z" transform="translate(-45.1 -183)"/><path class="cls-25" d="M688.5,532c-2.2,5.6-4,11.4-6.4,17a160.7,160.7,0,0,1-8,16.1c-5.6,9.4-12.6,18.1-21.3,24.8a64.6,64.6,0,0,1-15.7,9c-.9.4-.6,1.8.4,1.5,22.1-7.6,36.8-27.5,45.8-48.1a130.2,130.2,0,0,0,7.4-19.7A1.1,1.1,0,0,0,688.5,532Z" transform="translate(-45.1 -183)"/><path class="cls-25" d="M628.5,602.1a1.4,1.4,0,0,0-1-.5,1.9,1.9,0,0,0-1,.5,12.9,12.9,0,0,0-1.6,1.7,1.8,1.8,0,0,0-.5.7l-.3.5-.6,1.1a.7.7,0,0,0,.9.9,2.4,2.4,0,0,0,1.1-.6l.5-.2.7-.5a14.5,14.5,0,0,0,1.8-1.7,1.5,1.5,0,0,0,.4-1A1.5,1.5,0,0,0,628.5,602.1Z" transform="translate(-45.1 -183)"/><path class="cls-25" d="M621.3,601.3a1.2,1.2,0,0,0-1.6,0l-2.6,2.3a6.9,6.9,0,0,0-1.3,1.1l-1.3,1.3a1.2,1.2,0,0,0,0,1.6,1.1,1.1,0,0,0,1.7,0l1.4-1,1.2-1.2c.9-.8,1.7-1.7,2.5-2.5A1,1,0,0,0,621.3,601.3Z" transform="translate(-45.1 -183)"/><path class="cls-25" d="M480.5,843.3a1.2,1.2,0,0,0-1.4.8,32.8,32.8,0,0,0-1.8,6.1,19.1,19.1,0,0,0-.2,6.3c.1.4.3.8.7.8s.8-.2.8-.5a70.6,70.6,0,0,1,2.7-12.1A1.2,1.2,0,0,0,480.5,843.3Z" transform="translate(-45.1 -183)"/><path class="cls-25" d="M484.4,850.5c-.1-.5-.4-.9-.9-.9s-1,.4-.9.9v2.6c-.1.8,0,1.7-.1,2.5a.6.6,0,0,0,1,.3,9.5,9.5,0,0,0,.9-2.7A12.2,12.2,0,0,0,484.4,850.5Z" transform="translate(-45.1 -183)"/></svg>